<?xml version="1.0" encoding="utf-8"?>
<!DOCTYPE svg PUBLIC "-//W3C//DTD SVG 20010904//EN" "http://www.w3.org/TR/2001/REC-SVG-20010904/DTD/svg10.dtd">
<svg version="1.0" xmlns="http://www.w3.org/2000/svg" width="2362px" height="546px" viewBox="0 0 2362 546" preserveAspectRatio="xMidYMid meet">
 <g fill="#000000">
  <path d="M158.5 500.7 c-12.5 -4.1 -19.5 -13.8 -19.5 -27.2 0 -7.4 0.2 -7.5 10 -7.5 7.5 0 8 0.4 9.8 6.7 3.6 12.6 22.9 15.5 28.7 4.3 1.5 -2.8 1.4 -3.1 -1.5 -6.3 -3.1 -3.6 -5.2 -4.5 -21.2 -9.5 -17.8 -5.6 -22.9 -11.3 -23.6 -26.1 -0.6 -11.6 0.9 -16.5 6.4 -21.8 5.9 -5.7 11.6 -7.3 26.5 -7.3 9.5 0 12.9 0.4 17.3 2.1 9.7 3.6 15.6 12.7 15.6 23.9 0 5.7 -0.4 6 -10.1 6 -7.7 0 -9 -0.3 -9.5 -1.7 -1.6 -5.3 -3.7 -8.5 -6.6 -10.3 -6.1 -3.7 -16 -1.8 -18.9 3.6 -1.1 2.2 -1.1 2.9 0.1 5.2 2.1 3.7 6.6 6 18.3 9.4 12.6 3.7 18.5 6.6 22.5 11.2 4.4 5 5.5 9.6 5 21.3 -0.3 9.4 -0.5 10.5 -3.3 14.5 -2.1 2.8 -5 5.3 -9 7.3 -5.6 2.9 -6.5 3 -19.4 3.2 -9 0.2 -14.9 -0.2 -17.6 -1z"/>
  <path d="M413 501.1 c-8 -2.5 -14.9 -8.1 -18.6 -15.4 -1 -1.7 -1.9 -6.4 -2.2 -10.2 -0.6 -9.1 0.1 -9.7 10.4 -9.3 l7.7 0.3 1.7 5.2 c2.1 6.3 3.3 7.9 8.1 10.4 7.3 3.7 16.4 1.7 20.4 -4.5 1.5 -2.2 1.5 -2.7 0 -5.5 -1.9 -3.8 -6.5 -6.2 -18.6 -9.7 -17.7 -5 -24.8 -10.6 -27 -21.3 -2.2 -10.7 0.4 -23.5 5.7 -28.2 1.1 -0.9 3.9 -2.7 6.4 -4 4.2 -2.2 5.6 -2.4 20 -2.4 15.5 0 15.5 0 21 3.1 3.8 2.2 6.4 4.6 8.5 7.9 2.5 4.1 2.9 5.7 3 12.3 l0 7.7 -9.2 0.3 -9.2 0.3 -1 -3.9 c-2.9 -10.5 -17.5 -13.9 -24.1 -5.4 -2.6 3.2 -2.6 3.5 1.1 7.7 2.7 3 4.9 4 16.2 7.6 23.5 7.3 28.2 12.3 28.2 30.4 -0.1 11.5 -1.9 16.4 -7.9 21 -6.7 5.1 -12.4 6.5 -25.9 6.4 -6.7 0 -13.3 -0.4 -14.7 -0.8z"/>
  <path d="M495.7 500.6 c-12.5 -4.6 -19.7 -14.7 -19.7 -27.6 0 -6.4 1.2 -7.1 10.7 -6.8 l7.8 0.3 1.3 4 c2 6.6 3.4 8.5 7.8 11.1 7.5 4.4 18 2.4 21.1 -4.2 1.5 -3 1.5 -3.5 -0.1 -5.8 -2.1 -3.3 -7.2 -5.8 -17.8 -8.9 -23.4 -6.8 -28.3 -12.4 -27.6 -31.9 0.3 -9.4 0.6 -10.9 3 -14.5 1.9 -2.8 4.5 -5 8.5 -7 5.2 -2.5 7 -2.8 18.1 -3.2 7.3 -0.2 14.2 0.2 16.9 0.8 11.7 3 18.7 12.3 18.1 24.3 l-0.3 6.3 -9.2 0.3 -9.2 0.3 -0.7 -2.8 c-1.3 -5.2 -3.5 -8.5 -6.9 -9.9 -5.1 -2.1 -10.7 -1.8 -14.5 0.9 -4.5 3 -5.4 5.9 -2.8 9.2 2.7 3.4 7.1 5.5 20.9 9.8 18.7 5.9 23.8 11.2 24.7 25.9 0.8 14.2 -3 22.3 -13.2 27.6 -4.7 2.5 -6.1 2.7 -19.1 2.9 -10.1 0.2 -15.1 -0.1 -17.8 -1.1z"/>
  <path d="M707.7 500.6 c-8.8 -3.3 -14.6 -8.8 -18.9 -18.2 -2.2 -4.7 -2.3 -6 -2.3 -28.4 l0 -23.5 3.3 -6.7 c6.3 -12.9 15.4 -17.8 32.7 -17.8 17.3 0 26.4 4.9 32.7 17.8 l3.3 6.7 0 23.5 c0 23.2 0 23.6 -2.6 29 -3.4 7.4 -7.6 12 -14.1 15.5 -5 2.8 -6.1 3 -17.8 3.2 -8.8 0.2 -13.6 -0.1 -16.3 -1.1z m21.3 -19.6 c7.9 -4.1 10.5 -10.6 10.5 -27 0 -11.7 -0.2 -12.9 -2.8 -18.3 -3.1 -6.3 -9 -10.7 -14.3 -10.7 -5.2 0 -10.6 4 -13.6 9.9 -2.6 5.1 -2.8 6.2 -2.8 18.6 0 7.3 0.5 14.7 1.1 16.6 2.5 7.4 8.9 12.8 15.2 12.9 1.5 0 4.5 -0.9 6.7 -2z"/>
  <path d="M1225.7 500.6 c-9.9 -3.6 -17.4 -11.8 -20.2 -22.1 -1.3 -4.9 -1.6 -10 -1.3 -27 0.3 -20.2 0.4 -21.2 2.9 -26.5 3.4 -7.4 7.6 -12 14.1 -15.6 5.1 -2.8 5.7 -2.9 18.8 -2.9 12.3 0 14 0.2 18.4 2.4 5.9 2.9 11.8 8.5 14.4 13.8 3.6 7.1 4.4 13.8 4 34.8 -0.3 19.2 -0.4 20.2 -3 25.7 -3.5 7.5 -10.4 14.1 -17.4 16.7 -6.6 2.5 -24.5 2.9 -30.7 0.7z m21.9 -20.1 c3 -1.8 4.9 -4 6.8 -7.7 2.4 -4.8 2.6 -6.1 2.6 -18.7 0 -15.6 -1.2 -19.4 -7.4 -24.8 -6 -5.3 -11.9 -5.6 -18.2 -0.8 -5.2 4 -7.5 10 -8.1 21.3 -0.9 16.9 2.5 27 10.7 31.3 4.7 2.6 8.5 2.4 13.6 -0.6z"/>
  <path d="M1732.7 500.6 c-9.7 -3.5 -17.3 -11.7 -20.1 -21.7 -1.2 -4.1 -1.6 -10.4 -1.6 -24.9 0 -22.2 1 -27.6 6.6 -35.3 3.8 -5.2 10.7 -10.1 16.4 -11.7 5.4 -1.5 23.1 -1.2 27.8 0.4 10.6 3.8 18.8 13.2 21.1 24.3 0.9 4 1.2 12.5 0.9 25.8 -0.3 19.2 -0.4 20.2 -3 25.7 -3.5 7.5 -10.4 14.1 -17.4 16.7 -6.6 2.5 -24.5 2.9 -30.7 0.7z m20.1 -19 c3.8 -2 7.8 -6.5 9.6 -10.8 2.4 -5.7 2.2 -28.9 -0.3 -34.3 -2 -4.6 -7.9 -10.2 -11.7 -11.1 -6.4 -1.6 -13.8 2.7 -17.4 10.1 -2.8 5.7 -3.9 22.1 -2.1 30.7 2.6 12.5 13.2 19.9 21.9 15.4z"/>
  <path d="M1819 501.1 c-8 -2.5 -14.9 -8.1 -18.6 -15.4 -1 -1.7 -1.9 -6.4 -2.2 -10.2 -0.6 -9.1 0.1 -9.7 10.4 -9.3 l7.7 0.3 1.7 5.2 c2.1 6.3 3.3 7.9 8.1 10.4 7.3 3.7 16.4 1.7 20.4 -4.5 1.5 -2.2 1.5 -2.7 0 -5.5 -1.9 -3.8 -6.5 -6.2 -18.6 -9.7 -17.7 -5 -24.8 -10.6 -27 -21.3 -2.2 -10.7 0.4 -23.5 5.7 -28.2 1.1 -0.9 3.9 -2.7 6.4 -4 4.2 -2.2 5.6 -2.4 20 -2.4 15.5 0 15.5 0 21 3.1 3.8 2.2 6.4 4.6 8.5 7.9 2.5 4.1 2.9 5.7 3 12.3 l0 7.7 -9.2 0.3 -9.2 0.3 -1 -3.9 c-2.9 -10.5 -17.5 -13.9 -24.1 -5.4 -2.6 3.2 -2.6 3.5 1.1 7.7 2.7 3 4.9 4 16.2 7.6 23.5 7.3 28.2 12.3 28.2 30.4 -0.1 11.5 -1.9 16.4 -7.9 21 -6.7 5.1 -12.4 6.5 -25.9 6.4 -6.7 0 -13.3 -0.4 -14.7 -0.8z"/>
  <path d="M1907.4 500.9 c-5.3 -1.5 -12.7 -7.2 -16.2 -12.3 -5.6 -8.5 -6.4 -13 -6 -36.9 0.3 -20.4 0.4 -21.4 2.9 -26.7 3.4 -7.4 7.6 -12 14.1 -15.5 4.9 -2.7 6.2 -3 17.3 -3.3 10.4 -0.3 12.8 -0.1 17.7 1.8 7.2 2.7 14.1 9.2 17.6 16.8 2.7 5.7 2.7 5.8 2.7 29.2 0 23.4 0 23.5 -2.7 29.2 -3.5 7.5 -10.4 14.1 -17.4 16.7 -4.4 1.7 -7.7 2.1 -16.2 2 -5.9 0 -12.1 -0.5 -13.8 -1z m21.2 -20.4 c3 -1.8 4.9 -4 6.8 -7.7 2.4 -4.8 2.6 -6.1 2.6 -18.7 0 -15.6 -1.2 -19.4 -7.4 -24.8 -6 -5.3 -11.9 -5.6 -18.2 -0.8 -5.2 4 -7.5 10 -8.1 21.3 -0.9 16.9 2.5 27 10.7 31.3 4.7 2.6 8.5 2.4 13.6 -0.6z"/>
  <path d="M243 498.8 c-0.6 -1.3 -6 -20.2 -12 -42.1 -7.2 -26.1 -11 -41.5 -11 -44.8 l0 -5 9.8 0.3 9.7 0.3 7 27.3 c4.7 18.4 7.2 26.8 7.7 25.5 0.4 -1 3.5 -12.4 6.8 -25.3 3.3 -12.9 6.5 -24.5 7 -25.7 0.9 -2.2 1.6 -2.3 10.4 -2.3 l9.5 0 1.4 4.8 c0.7 2.6 4 15 7.3 27.5 3.9 15.1 6.1 22.2 6.6 21 0.4 -1 3.3 -11.9 6.3 -24.3 3.1 -12.4 6 -24 6.6 -25.7 l1.1 -3.3 9.4 0 9.4 0 0 5.1 c0 4.4 -11.9 50.8 -21.1 82.2 l-2 6.7 -10 0 c-9.4 0 -10 -0.1 -10.8 -2.2 -0.5 -1.3 -3.7 -13.4 -7.2 -27 -3.5 -13.7 -6.6 -24.8 -6.9 -24.8 -0.3 0 -3.4 11.4 -6.9 25.3 -3.5 13.8 -6.8 26 -7.3 27 -0.7 1.4 -2.3 1.7 -10.4 1.7 -8.8 0 -9.5 -0.1 -10.4 -2.2z"/>
  <path d="M353.5 499.8 c-0.3 -0.7 -0.4 -21.8 -0.3 -46.8 l0.3 -45.5 9.5 0 9.5 0 0 46.5 0 46.5 -9.3 0.3 c-6.8 0.2 -9.4 -0.1 -9.7 -1z"/>
  <path d="M603.5 499.8 c-0.3 -0.7 -0.4 -21.8 -0.3 -46.8 l0.3 -45.5 25 0 c27.3 0 28.1 0.2 34.8 6.4 5.4 5 7 9.5 7.5 21.7 0.5 13.4 -1.1 20 -6.2 26 -5.8 6.7 -11.5 8.6 -28.3 9.2 l-14.3 0.5 0 14.8 0 14.9 -9 0 c-6.3 0 -9.2 -0.4 -9.5 -1.2z m38.8 -49.2 c5.2 -2.2 7.9 -5.9 8.5 -11.5 0.4 -4.5 0.2 -5.2 -3.1 -8.7 l-3.5 -3.9 -11.1 -0.3 -11.1 -0.4 0 12.4 c0 6.9 0.3 12.8 0.7 13.1 1.2 1.3 16.3 0.7 19.6 -0.7z"/>
  <path d="M780.5 499.8 c-0.3 -0.7 -0.4 -21.8 -0.3 -46.8 l0.3 -45.5 25 0 25 0 5.4 3.1 c4.2 2.3 6.2 4.3 8.5 8.5 3 5.2 3.1 5.8 3.1 17.9 0 11 -0.3 13 -2.2 16.7 -2.3 4.3 -8.8 10.3 -11.1 10.3 -0.8 0 1.6 5.6 6.3 14.5 6.3 11.9 7.6 15.1 7.3 18.2 l-0.3 3.8 -9.9 0 -9.8 0 -8.5 -16.2 -8.5 -16.3 -5.9 0 -5.9 0 -0.2 16.3 -0.3 16.2 -8.8 0.3 c-6.4 0.2 -8.9 -0.1 -9.2 -1z m40 -52.2 c6.1 -2.6 9.1 -10.1 6.1 -15.4 -2.7 -4.9 -6.3 -6.2 -17.3 -6.2 l-10.3 0 0 11.5 0 11.5 9 0 c5.6 0 10.4 -0.5 12.5 -1.4z"/>
  <path d="M885 463.5 l0 -37.5 -12.2 0 c-6.8 0 -12.9 -0.4 -13.6 -0.9 -0.9 -0.5 -1.2 -3.1 -1 -9.2 l0.3 -8.4 36 0 36 0 0.3 8.4 c0.2 6.1 -0.1 8.7 -1 9.2 -0.7 0.5 -6.8 0.9 -13.5 0.9 l-12.3 0 -0.2 37.3 -0.3 37.2 -9.2 0.3 -9.3 0.3 0 -37.6z"/>
  <path d="M929.7 500.4 c-1.9 -2 0.5 -10.3 14.7 -49.9 l15.4 -43 10.5 -0.3 10.5 -0.3 2.6 6.8 c13.9 37 28.7 80.2 28.4 83.3 l-0.3 3.5 -9.6 0.3 -9.7 0.3 -3.7 -10.6 -3.8 -10.6 -14.6 0.3 -14.6 0.3 -3.5 10 -3.6 10 -9 0.3 c-5 0.1 -9.3 0 -9.7 -0.4z m45.4 -49.1 c-2.1 -6 -4 -11.4 -4.3 -12.2 -0.2 -0.8 -2.1 3.5 -4.3 9.5 -2.1 6 -4 11.5 -4.3 12.2 -0.3 0.9 1.7 1.2 8.2 1.2 l8.5 0 -3.8 -10.7z"/>
  <path d="M1028.5 499.8 c-0.3 -0.7 -0.4 -21.8 -0.3 -46.8 l0.3 -45.5 8.9 -0.3 c6.5 -0.2 9.2 0.1 9.8 1 0.4 0.7 0.8 17.6 0.8 37.6 l0 36.2 19.8 0 c14.1 0 20.1 0.3 21 1.2 1.2 1.2 1.7 13.4 0.6 16.2 -0.5 1.4 -4.2 1.6 -30.5 1.6 -23.1 0 -30.1 -0.3 -30.4 -1.2z"/>
  <path d="M1131.5 499.8 c-0.3 -0.7 -0.4 -21.8 -0.3 -46.8 l0.3 -45.5 30 0 30 0 0.3 8.4 c0.2 6.1 -0.1 8.7 -1 9.2 -0.7 0.5 -10 0.9 -20.5 0.9 l-19.3 0 0 10.5 0 10.5 16.3 0.2 16.2 0.3 0 9 0 9 -16.2 0.3 -16.3 0.2 -0.2 17.3 -0.3 17.2 -9.3 0.3 c-6.8 0.2 -9.4 -0.1 -9.7 -1z"/>
  <path d="M1298.2 454.3 l0.3 -46.8 25 0 c23.7 0 25.2 0.1 29 2.2 8.8 4.7 12.3 11 13.2 23.7 1 14.6 -3.2 25.5 -11.2 29.3 l-3.5 1.7 7.6 14.4 c6 11.6 7.4 15.1 7.2 18 l-0.3 3.7 -10 0 -10 0 -8.3 -16.2 -8.2 -16.3 -6 0 -6 0 -0.2 16.3 -0.3 16.2 -9.3 0.3 -9.2 0.3 0.2 -46.8z m40.3 -6.7 c7.7 -3.2 9.4 -12.1 3.5 -18.1 -3 -2.9 -3.3 -3 -14 -3.3 l-11 -0.4 0 11.6 0 11.6 9 0 c5.6 0 10.4 -0.5 12.5 -1.4z"/>
  <path d="M1418 454 l0 -47 22.8 0 c25 0 29.5 0.7 35.9 5.6 2.1 1.6 4.6 5 6.1 8.3 2.3 4.9 2.6 6.9 2.6 16.6 0 13.2 -1.8 19.5 -7.1 25 -6.1 6.3 -10.8 7.7 -27 8.3 l-14.2 0.5 -0.3 14.6 -0.3 14.6 -9.2 0.3 -9.3 0.3 0 -47.1z m38.2 -3 c7.3 -2.1 11.3 -10.4 8.4 -17.3 -2.5 -6 -6.4 -7.7 -17.8 -7.7 l-9.8 0 0 13 0 13 7.8 0 c4.2 0 9.4 -0.5 11.4 -1z"/>
  <path d="M1504.5 499.8 c-0.3 -0.7 -0.4 -21.8 -0.3 -46.8 l0.3 -45.5 8.9 -0.3 c6.5 -0.2 9.2 0.1 9.8 1 0.4 0.7 0.8 9.1 0.8 18.6 l0 17.3 15.3 -0.3 15.2 -0.3 0.5 -18 0.5 -18 9 0 9 0 0 46.5 0 46.5 -9.2 0.3 -9.3 0.3 0 -19.1 0 -19 -15.5 0 -15.5 0 0 17.4 c0 9.6 -0.3 18.1 -0.6 19 -0.5 1.3 -2.3 1.6 -9.5 1.6 -6.3 0 -9.1 -0.4 -9.4 -1.2z"/>
  <path d="M1598 454 l0 -47.1 9.3 0.3 9.2 0.3 0 46.5 0 46.5 -9.2 0.3 -9.3 0.3 0 -47.1z"/>
  <path d="M1640.6 499.4 c-0.9 -2.4 -0.7 -89.7 0.2 -91.2 0.6 -0.9 3.3 -1.2 9.8 -1 l8.9 0.3 0.3 37.3 0.2 37.2 19.9 0 c15.8 0 20.1 0.3 21 1.4 0.8 0.9 1.1 4.3 0.9 9.3 l-0.3 7.8 -30.1 0.3 c-26.9 0.2 -30.2 0.1 -30.8 -1.4z"/>
  <path d="M1979.5 499.8 c-0.3 -0.7 -0.4 -21.8 -0.3 -46.8 l0.3 -45.5 22.9 -0.3 c25.5 -0.3 29.1 0.3 35.8 5.8 2 1.7 4.7 5.1 6 7.7 2 4.2 2.3 6.3 2.3 16.8 0 7.3 -0.5 13.4 -1.3 15.7 -2.3 6.4 -6.7 11.4 -12.7 14.3 -5.1 2.6 -6.9 2.8 -20 3.3 l-14.4 0.5 -0.3 14.6 -0.3 14.6 -8.8 0.3 c-6.4 0.2 -8.9 -0.1 -9.2 -1z m37.7 -48.8 c7.4 -2.1 11.6 -11 8.4 -17.6 -2.7 -5.8 -6.6 -7.4 -17.8 -7.4 l-9.8 0 0 13 0 13 7.8 0 c4.2 0 9.4 -0.5 11.4 -1z"/>
  <path d="M2065.5 499.8 c-0.3 -0.7 -0.4 -21.8 -0.3 -46.8 l0.3 -45.5 9.5 0 9.5 0 0.3 18.3 0.2 18.3 15.3 -0.3 15.2 -0.3 0.5 -18 0.5 -18 9 0 9 0 0 46.5 0 46.5 -9 0 -9 0 -0.3 -18.7 -0.2 -18.8 -15.5 0 -15.5 0 -0.2 18.8 -0.3 18.7 -9.3 0.3 c-6.8 0.2 -9.4 -0.1 -9.7 -1z"/>
  <path d="M2179.7 500.3 c-0.4 -0.3 -0.7 -8.1 -0.7 -17.3 l0 -16.6 -15 -25.4 c-13.4 -22.7 -15 -25.9 -14.8 -29.5 l0.3 -4 9.9 0 9.8 0 9.7 16.7 c5.3 9.3 9.8 16.8 10.1 16.8 0.3 0 4.9 -7.5 10.2 -16.7 l9.5 -16.8 9.7 -0.3 9.6 -0.3 0 4.8 c0 4.4 -1.3 7 -15 30.1 l-15 25.3 0 17 0 16.9 -8.8 0 c-4.9 0 -9.2 -0.3 -9.5 -0.7z"/>
  <path d="M1837 349.4 c-7.4 -3.2 -11.4 -9.4 -12.5 -19 -1 -8.3 0.8 -16.1 4.7 -20.8 4.7 -5.8 9.6 -7.6 20.4 -7.6 10.9 0 16.2 2.2 20.9 8.9 2.7 3.8 3 5 3.3 13.9 0.4 9.1 0.2 10 -2.5 15.2 -2.3 4.4 -3.9 5.9 -8.2 8.2 -4.7 2.4 -6.4 2.8 -14 2.8 -5.4 -0.1 -9.9 -0.6 -12.1 -1.6z"/>
  <path d="M145 348 c-2 -2 -2 -3.3 -2 -117.5 0 -114.2 0 -115.5 2 -117.5 1.8 -1.8 3.3 -2 18.5 -2 15.2 0 16.7 0.2 18.5 2 1.2 1.2 2 3.3 2 5.5 l0 3.5 4.8 -3.7 c11.7 -9 29.6 -12.7 49.1 -10.4 11.9 1.5 18.9 3.9 27.3 9.7 14.4 9.8 23 26.9 25.9 51.6 1.6 14.2 0.6 55.8 -1.6 65.7 -6.1 27.5 -21 44.7 -43.5 50.2 -8.3 2.1 -31.9 1.8 -39.5 -0.5 -7.2 -2.2 -14.2 -5.6 -18.3 -9 -1.6 -1.5 -3.3 -2.6 -3.6 -2.6 -0.3 0 -0.6 16.3 -0.6 36.3 l0 36.4 -2.3 2.1 c-2.2 2.1 -3.3 2.2 -18.5 2.2 -14.9 0 -16.4 -0.2 -18.2 -2z m84.5 -100.9 c9.4 -4.1 16.9 -14.2 19.4 -25.9 1.7 -8.2 1.4 -42.5 -0.4 -49.7 -3.2 -12.2 -9.1 -19.6 -19.4 -24.3 -14.9 -6.8 -33.3 0.8 -40.5 16.7 -4.1 9.2 -4.9 15.6 -4.3 37.1 0.4 16.4 0.8 20.4 2.5 25.2 4.2 11.6 10.6 18.1 21.5 22 6.2 2.2 14.7 1.8 21.2 -1.1z"/>
  <path d="M1207.2 347.7 l-2.2 -2.3 0 -115.2 c0 -113.9 0 -115.2 2 -117.2 1.8 -1.8 3.3 -2 18.5 -2 15.2 0 16.7 0.2 18.5 2 1.3 1.3 2 3.3 2 5.6 l0 3.6 3.9 -3.1 c5.3 -4.2 12.7 -7.8 20.2 -9.8 8.9 -2.3 31 -2.2 39.9 0.1 20.5 5.5 34.2 20.4 40.8 44.4 2.6 9.6 2.7 10 2.6 42.7 0 32.6 0 33.1 -2.6 42.7 -4.8 17.7 -13.7 30.9 -26.2 39 -8.4 5.4 -17 7.8 -30.1 8.5 -18.8 0.9 -32.8 -2.6 -43.7 -11 l-4.8 -3.7 0 37 c0 35.7 -0.1 37.1 -2 39 -1.8 1.8 -3.3 2 -18.3 2 -15.8 0 -16.4 -0.1 -18.5 -2.3z m84.6 -100.7 c6.8 -2.9 14.2 -10.8 17.3 -18.5 2.3 -5.8 2.4 -6.9 2.4 -31.5 0 -24.6 -0.1 -25.7 -2.4 -31.5 -3.3 -8.2 -11.6 -16.5 -19.1 -19 -16.3 -5.6 -33.9 3 -40 19.3 -5.4 14.3 -5.3 48.2 0.1 62.7 6.5 17.3 25.1 25.6 41.7 18.5z"/>
  <path d="M738.6 285.5 c-28.6 -5.5 -49.1 -25.9 -55.1 -55.2 -3.4 -16.5 -2.9 -55.9 1 -70.8 6.2 -24.2 25 -43.2 49.2 -49.6 11 -3 33.5 -3 44.4 -0.1 25.4 6.8 42.8 24.5 50.1 50.9 2 7.2 2.2 10.2 2.2 36.3 0 26.3 -0.1 29.1 -2.2 36.5 -7 25.4 -24 43.3 -47.7 50.3 -10.5 3.1 -30.3 3.9 -41.9 1.7z m31.4 -39.7 c7.6 -3.9 12.9 -10.2 16.1 -19.3 1.9 -5.1 2.3 -8.9 2.6 -24.6 0.3 -10.5 0.1 -21.5 -0.5 -25.3 -1.4 -8.7 -5.3 -17 -10.5 -22.4 -12.1 -12.5 -29.3 -12.9 -42.3 -1 -10.1 9.2 -12.9 20.6 -12.1 48.7 0.6 22.7 2 28 9.9 36.7 10.8 11.7 23.1 14.2 36.8 7.2z"/>
  <path d="M909.5 286 c-30.9 -4.9 -52.5 -26.1 -52.5 -51.5 0 -10.3 0.4 -10.5 18.5 -10.5 9.1 0 14.9 0.5 16.5 1.3 1.5 0.8 3.2 3.2 4.5 6.5 5.7 15 21 22.4 38.5 18.8 9.6 -2 14.8 -5.5 17.4 -11.9 1.9 -4.4 1.9 -4.9 0.3 -8.1 -3.4 -7.3 -10.4 -10.5 -35 -16.1 -30.7 -7.1 -42.2 -12.8 -50.8 -25.2 -4.1 -6 -5.9 -11.4 -7 -21.6 -3.8 -35.8 14.3 -56 53.4 -59.7 31.3 -3 53.3 4.3 66.9 22.2 7.2 9.4 10.8 18.9 10.8 28.2 0 6.4 -0.3 7.7 -1.9 8.6 -1.1 0.6 -8.9 1 -18.1 1 l-16.1 0 -3 -6.7 c-5.7 -12.7 -14.2 -18.3 -27.9 -18.3 -19.3 0 -30.1 13 -19.2 23.2 4.8 4.6 11.2 7 32.9 12.4 25.1 6.3 35.5 10.6 43.6 18.3 5.6 5.3 9.9 12.8 11.6 20.2 1.4 5.9 1.4 24.5 0 31.1 -3.8 17.8 -17.7 30.6 -39 35.8 -9.7 2.4 -34.6 3.5 -44.4 2z"/>
  <path d="M1078.5 285.6 c-28.1 -5.5 -47.6 -23.9 -55.1 -52.1 -1.7 -6.1 -1.9 -10.9 -1.9 -36.5 0 -27.8 0.1 -30 2.3 -37.4 3.7 -12.7 9.6 -23 18.2 -31.7 12 -12.2 24.8 -18 43.6 -20 40 -4.3 71.1 15.4 81.6 51.7 2.2 7.5 2.3 9.5 2.3 37.9 0 30 0 30 -2.8 39 -4.5 14.5 -11.8 25.8 -22.4 34.6 -5.9 4.9 -18.7 11.3 -26.8 13.4 -8.4 2.2 -30.2 2.8 -39 1.1z m30 -39.2 c8.9 -4.2 16 -13.8 18.4 -25.2 1.7 -8.2 1.4 -42.5 -0.4 -49.7 -3.2 -12.2 -9.1 -19.6 -19.5 -24.3 -15.4 -7.1 -34.7 1.7 -41 18.6 -5.3 14.1 -5.3 48.3 0 62.4 6.7 17.9 25.8 26.1 42.5 18.2z"/>
  <path d="M1715.7 285.4 c-27 -4.9 -47.2 -23.9 -54.9 -51.9 -2.1 -7.4 -2.2 -10.1 -2.2 -36.5 0 -26.1 0.2 -29.1 2.2 -36.3 7.3 -26.4 24.7 -44.1 50.1 -50.9 10.2 -2.7 32.5 -3 42.1 -0.4 25.8 6.7 44.1 25.1 51.1 51.3 1.7 6.1 2.3 11.9 2.6 26.1 0.6 19.8 0.2 22 -4.4 24.1 -1.6 0.8 -17.9 1.1 -52.5 1.1 l-50.1 0 0.6 4.8 c2.6 21.9 22.9 37.4 41.8 31.9 7.5 -2.2 12.5 -6.3 18.4 -14.8 3.2 -4.6 5.9 -7.6 7.5 -8 3.9 -1.1 29.6 -1 32.4 0.1 2.5 0.9 2.6 1.4 2.6 7.9 0 17.9 -17 38.7 -38.8 47.6 -12.8 5.2 -32.6 6.8 -48.5 3.9z m49.7 -109.6 c-1 -6.5 -4.1 -14.2 -7.5 -18.5 -7.3 -9.1 -20.3 -14.4 -30.1 -12.3 -14.8 3.1 -25.3 14.9 -27.5 30.6 l-0.6 4.4 33.2 0 33.1 0 -0.6 -4.2z"/>
  <path d="M1949.5 285.6 c-28 -5.6 -46.7 -24.4 -52.6 -53 -2.8 -13.4 -2.7 -57.9 0 -71.4 5 -24.2 21.6 -43.6 43 -50.3 15.3 -4.7 37.8 -4.6 52 0.2 8.8 3 20.5 11.2 26.4 18.4 10.9 13.5 19.3 38.5 14.5 43.3 -1.8 1.8 -26.2 1.7 -27.7 -0.2 -0.6 -0.7 -2 -3.8 -3 -6.8 -4.6 -13.5 -11.4 -21.8 -21.4 -26.4 -5.2 -2.4 -7.5 -2.8 -14.7 -2.9 -7.5 0 -9.3 0.4 -15.2 3.2 -12.2 5.7 -20.7 17 -23.9 31.8 -2.1 9.4 -1.8 45.2 0.5 53.5 3.9 14.3 13 25.6 24.6 30.2 7.7 3.2 21.5 3.2 28.2 0.1 7.8 -3.6 14.6 -10.7 19 -19.9 2.1 -4.5 3.8 -8.9 3.8 -9.8 0 -0.9 0.9 -2.5 2 -3.6 1.8 -1.8 3.3 -2 13.4 -2 6.3 0 12.1 0.3 13 0.6 1.3 0.5 1.6 2.2 1.6 8.4 0 23.8 -20.3 48.6 -45.5 55.5 -8.3 2.2 -29.1 2.8 -38 1.1z"/>
  <path d="M329.7 281.2 c-1.6 -1.7 -1.7 -11.3 -1.7 -117.5 l0 -115.6 2.2 -2.1 c2 -1.8 3.5 -2 17.9 -2 14.3 0 15.9 0.2 18.3 2.1 l2.6 2 0 37 0 36.9 4.7 -3.6 c10.9 -8.3 19.5 -10.7 38.3 -10.7 15.4 0 22.8 1.5 32.2 6.5 15 8 24.2 21.7 29.4 43.9 1.5 6.4 1.8 14.6 2.1 62.3 0.3 30.2 0.2 55.9 -0.1 57.2 -1.3 5.1 -2.5 5.4 -20.4 5.4 -9.2 0 -17.2 -0.4 -17.8 -0.8 -3.2 -2.1 -3.4 -5.2 -3.4 -54.9 0 -54.3 -0.2 -56.3 -5.7 -66.5 -3.3 -6.1 -8.1 -10.3 -15.3 -13.6 -18.6 -8.6 -39.2 5.1 -43 28.5 -0.6 3.2 -1 27.7 -1 54.6 0 47.4 -0.1 48.8 -2 50.7 -1.8 1.8 -3.3 2 -18.8 2 -15.1 0 -17.1 -0.2 -18.5 -1.8z"/>
  <path d="M520 281 c-2 -2 -2 -3.3 -2 -83.8 0 -81 0 -81.8 2 -84 2 -2.1 2.9 -2.2 18.4 -2.2 14.6 0 16.6 0.2 18.7 1.9 l2.4 1.9 0 82 c0 79.2 -0.1 82.1 -1.9 84.1 -1.8 2 -2.9 2.1 -18.8 2.1 -15.5 0 -17 -0.2 -18.8 -2z"/>
  <path d="M607.4 282.2 c-3.3 -2.2 -3.4 -4.2 -3.4 -119.2 l0 -114.1 2.5 -2.4 c2.4 -2.4 2.7 -2.5 18.5 -2.5 15.8 0 16.1 0.1 18.5 2.5 l2.5 2.4 0 114.1 c0 115 -0.1 117 -3.4 119.2 -0.6 0.4 -8.5 0.8 -17.6 0.8 -9.1 0 -17 -0.4 -17.6 -0.8z"/>
  <path d="M1392 281 c-2 -2 -2 -3.3 -2 -117.4 l0 -115.5 2.6 -2 c2.4 -1.9 4 -2.1 18.3 -2.1 14.4 0 15.9 0.2 17.9 2 2.2 2.1 2.2 2.3 2.2 39.1 l0 37 5.3 -4 c10.4 -7.9 19.9 -10.5 38.2 -10.5 20.9 0.1 32.1 4 43.5 15.4 6.8 6.7 12.3 15.9 15.4 25.5 4.2 13.2 4.6 20.5 4.6 76.6 0 52.6 0 53.9 -2 55.9 -1.8 1.8 -3.3 2 -18.8 2 -15.9 0 -17 -0.1 -18.8 -2.1 -1.8 -2 -1.9 -4.8 -2.4 -55.8 -0.5 -53.1 -0.5 -53.7 -2.8 -59.3 -2.8 -7 -9.8 -14.9 -15.5 -17.7 -2.3 -1.1 -6.6 -2.5 -9.5 -3.2 -4.6 -0.9 -6.2 -0.8 -12.4 1.1 -6 1.8 -8 3 -12.8 7.8 -6.7 6.8 -9.7 13.6 -11.1 25.7 -0.5 4.4 -0.9 28.7 -0.9 54.1 0 43.4 -0.1 46.2 -1.8 47.7 -1.6 1.4 -4.4 1.7 -18.5 1.7 -15.4 0 -16.9 -0.2 -18.7 -2z"/>
  <path d="M1583.4 282.2 c-3.3 -2.2 -3.4 -4.7 -3.4 -85.5 0 -79.9 0 -80.4 2.1 -83.1 l2 -2.6 16.9 0 16.9 0 2 2.6 c2.1 2.7 2.1 3.2 2.1 83.1 0 80.8 -0.1 83.3 -3.4 85.5 -0.6 0.4 -8.5 0.8 -17.6 0.8 -9.1 0 -17 -0.4 -17.6 -0.8z"/>
  <path d="M2075 281.1 c-0.7 -1.3 -1 -39.7 -1 -117.3 0 -102.8 0.2 -115.6 1.6 -117.6 1.4 -2.1 2.2 -2.2 13.9 -2.2 9.9 0 12.7 0.3 13.9 1.6 1.4 1.3 1.6 6.4 1.6 40.1 l0 38.5 4.4 -3.9 c10.6 -9.4 21.1 -12.7 40.1 -12.6 14.6 0 22.3 1.5 32 6.3 16.2 8 27.8 25.7 31.4 48.1 1.6 9.6 1.5 118.1 -0.1 119.7 -0.8 0.8 -5.5 1.2 -14.3 1.2 -13.1 0 -13.2 0 -14.3 -2.5 -0.9 -1.9 -1.2 -17.1 -1.2 -53.8 0 -56.4 -0.2 -58.7 -6.2 -69.8 -3.8 -7.3 -11.1 -14.2 -18.6 -17.7 -4.6 -2.1 -7.2 -2.6 -13.7 -2.7 -7 0 -8.9 0.4 -14.7 3.2 -11.3 5.3 -18.2 14.3 -22.5 29 -1.4 5 -1.7 13 -2.1 58.8 -0.2 34.5 -0.7 53.4 -1.4 54.2 -0.7 0.9 -4.9 1.3 -14.4 1.3 -12.2 0 -13.4 -0.2 -14.4 -1.9z"/>
  <path d="M525.5 89.3 c-8.5 -4.4 -11.4 -10.2 -11.5 -22.4 0 -11.2 2.9 -17.6 9.8 -21.7 4.3 -2.5 5.6 -2.7 14.7 -2.7 11.7 0 16.8 2 21 8.3 4.3 6.6 5.4 19.8 2.3 28.2 -1.3 3.5 -5.6 7.8 -10 10.1 -4.9 2.5 -21.7 2.7 -26.3 0.2z"/>
  <path d="M1586.9 88.7 c-7.4 -4 -10.9 -11 -10.9 -22.2 0 -8.8 1.6 -13.4 6.4 -18.1 4.7 -4.8 9.3 -6.4 18.5 -6.4 8.9 0 13.9 1.8 18.7 6.5 5.1 5.2 6.8 10.9 6.2 21 -0.6 9.4 -4.1 15.7 -10.7 19.2 -3.7 1.9 -5.9 2.3 -14.1 2.3 -8.2 0 -10.4 -0.4 -14.1 -2.3z"/>
 </g>
 <g fill="#ffffff">
  <path d="M0 273 l0 -273 1181 0 1181 0 0 273 0 273 -1181 0 -1181 0 0 -273z m192.6 222.5 c8.5 -4.4 11.8 -9.4 12.2 -19 0.9 -16.2 -5.4 -22.9 -26.9 -29.1 -16.4 -4.7 -19.9 -7.4 -19.9 -15.4 0 -7.9 4.5 -11 15.8 -11 9.8 0 13.7 2.9 16.6 12.3 0.7 2.3 12.1 2.5 13 0.2 1.3 -3.4 -1.5 -11.3 -5.5 -15.9 -5.5 -6.2 -12.1 -8.6 -23.8 -8.6 -11.6 0 -18 2 -23.5 7.3 -10.1 9.7 -8.3 28.3 3.4 36.1 2.3 1.5 8.5 4.1 13.8 5.8 5.3 1.6 11.6 3.7 14 4.6 5.5 2 10.2 7.2 10.2 11.5 0 4.5 -3.4 9.5 -7.5 11.3 -4.3 1.8 -15.5 1.8 -19.8 0 -4.2 -1.7 -8.3 -6.6 -9.2 -10.8 -1 -4.7 -2.3 -5.8 -6.5 -5.8 -5.8 0 -7 0.8 -7 4.5 0 7.2 4.8 15.8 11.3 20.1 6.7 4.4 11.1 5.4 22.8 5.1 9.5 -0.2 11.2 -0.5 16.5 -3.2z m249.4 1.6 c11.5 -4.4 16.3 -11 16.4 -22.6 0.2 -14.7 -5.8 -20.5 -28.1 -27.4 -11.3 -3.6 -13.5 -4.6 -16.2 -7.6 -5.4 -6.2 -3.6 -14.4 3.8 -17.5 1.9 -0.7 6 -1.1 10.5 -0.8 6.7 0.3 7.8 0.7 10.6 3.3 1.7 1.6 3.5 4.6 4.1 6.7 l1 3.9 6.2 -0.3 6.2 -0.3 -0.2 -4.9 c-0.2 -6.9 -4.3 -13 -11.3 -17 -5.3 -3 -5.9 -3.1 -18 -3.1 -11.2 0 -13 0.2 -17 2.4 -5.9 3.1 -7.8 4.8 -10 9.1 -4.4 8.7 -3.3 19.9 2.7 26.9 4.3 5.1 9.9 8 22.2 11.5 5.2 1.5 11.2 3.6 13.3 4.7 9.1 4.7 9 16.6 -0.2 21.4 -4.3 2.2 -16.1 2 -20.9 -0.4 -4.8 -2.5 -6 -4.1 -8.1 -10.4 l-1.7 -5.2 -4.7 -0.3 c-6.4 -0.4 -8 1 -7.2 6.5 1.4 10.1 9.5 19 20.6 22.4 5.3 1.6 20.7 1 26 -1z m87.6 -1.4 c9.6 -4.9 14.4 -14 13.1 -24.7 -1.4 -11.8 -7.3 -17.3 -24.6 -22.7 -13.8 -4.3 -18.2 -6.4 -21 -9.9 -3.8 -4.8 -2.3 -12.1 3.1 -15.4 2.4 -1.5 5.1 -2 10.1 -2 10.9 0 15 2.7 17.1 11.3 0.6 2.7 0.8 2.8 6.9 2.5 l6.2 -0.3 0.3 -3.3 c0.5 -5.3 -3.8 -13.4 -9 -17 -6.2 -4.2 -12.1 -5.5 -23.1 -5 -7.7 0.3 -10.3 0.9 -15.1 3.2 -8.1 4 -11 8.6 -11.5 18.3 -0.8 16.1 5.4 22.5 27.7 29 15.1 4.4 19.2 7.4 19.2 14.6 0 8.8 -5.2 12.7 -17.1 12.7 -5.8 0 -8 -0.5 -11.3 -2.4 -4.4 -2.6 -5.8 -4.5 -7.8 -11.1 -1.3 -3.9 -1.4 -4 -6.4 -4.3 -7 -0.4 -8.1 1 -6.5 8.3 1.4 6.4 5.6 12.5 11 16.1 7 4.6 10.7 5.4 22.6 5.1 9.6 -0.3 11.6 -0.6 16.1 -3z m209.2 -0.2 c6.5 -3.5 10.6 -8.1 14.1 -15.5 2.5 -5.4 2.6 -6 2.6 -26 l0 -20.5 -3.3 -6.7 c-5.9 -11.9 -15.6 -17.8 -29.7 -17.8 -14.1 0 -23.8 5.9 -29.7 17.8 l-3.3 6.7 0 20.5 c0 19.2 0.1 20.8 2.3 25.4 3.1 6.7 6.6 11.2 11.2 14.2 6.7 4.5 10.7 5.4 21 5.1 8.3 -0.2 10.2 -0.6 14.8 -3.2z m514.6 1.4 c7 -2.6 13.9 -9.2 17.4 -16.7 2.5 -5.3 2.7 -6.8 3 -22.7 0.4 -17.9 -0.4 -24.9 -4 -31.8 -2.6 -5.3 -8.5 -10.9 -14.4 -13.8 -4.2 -2.1 -6.3 -2.4 -15.4 -2.4 -9.8 0 -10.9 0.2 -15.8 2.9 -6.5 3.6 -10.7 8.2 -14.1 15.6 -2.4 5.2 -2.6 6.6 -2.9 23.5 -0.3 14.3 0 19.2 1.3 24 2.8 10.3 10.3 18.5 20.2 22.1 5.9 2.1 18.2 1.8 24.7 -0.7z m507 0 c7 -2.6 13.9 -9.2 17.4 -16.7 2.5 -5.3 2.7 -6.8 3 -22.6 0.5 -20.2 -0.6 -26.4 -5.8 -34.4 -3.8 -6 -9.4 -10.4 -16.2 -12.8 -4.7 -1.6 -16.6 -1.8 -21.8 -0.4 -5.7 1.6 -12.6 6.5 -16.4 11.7 -5.4 7.4 -6.6 13.4 -6.6 32.3 0 11.8 0.4 17.9 1.6 21.9 2.8 10 10.4 18.2 20.1 21.7 5.9 2.1 18.2 1.8 24.7 -0.7z m87.6 0.2 c11.5 -4.4 16.3 -11 16.4 -22.6 0.2 -14.7 -5.8 -20.5 -28.1 -27.4 -11.3 -3.6 -13.5 -4.6 -16.2 -7.6 -5.4 -6.2 -3.6 -14.4 3.8 -17.5 1.9 -0.7 6 -1.1 10.5 -0.8 6.7 0.3 7.8 0.7 10.6 3.3 1.7 1.6 3.5 4.6 4.1 6.7 l1 3.9 6.2 -0.3 6.2 -0.3 -0.2 -4.9 c-0.2 -6.9 -4.3 -13 -11.3 -17 -5.3 -3 -5.9 -3.1 -18 -3.1 -11.2 0 -13 0.2 -17 2.4 -5.9 3.1 -7.8 4.8 -10 9.1 -4.4 8.7 -3.3 19.9 2.7 26.9 4.3 5.1 9.9 8 22.2 11.5 5.2 1.5 11.2 3.6 13.3 4.7 9.1 4.7 9 16.6 -0.2 21.4 -4.3 2.2 -16.1 2 -20.9 -0.4 -4.8 -2.5 -6 -4.1 -8.1 -10.4 l-1.7 -5.2 -4.7 -0.3 c-6.4 -0.4 -8 1 -7.2 6.5 1.4 10.1 9.5 19 20.6 22.4 5.3 1.6 20.7 1 26 -1z m86.4 -0.2 c7 -2.6 13.9 -9.2 17.4 -16.7 2.7 -5.6 2.7 -6.1 2.7 -26.2 0 -20.1 0 -20.6 -2.7 -26.2 -3.5 -7.6 -10.3 -14.1 -17.6 -16.8 -4.7 -1.8 -7.3 -2.1 -14.7 -1.8 -7.6 0.3 -9.8 0.8 -14.3 3.3 -6.5 3.5 -10.6 8.1 -14.1 15.5 -2.5 5.2 -2.6 6.5 -2.9 23.7 -0.4 20.6 0.5 25.6 6 33.9 3.5 5.1 10.9 10.8 16.2 12.3 5.9 1.7 18.1 1.3 24 -1z m-1673.8 0 c0.3 -0.6 4.3 -15.5 8.8 -33.2 4.6 -17.6 8.5 -31.6 8.8 -31.1 0.3 0.5 4.1 14.4 8.3 30.9 4.3 16.5 8.1 31 8.6 32.3 0.8 2 1.5 2.2 7.8 2.2 l7 0 2 -6.7 c5.5 -18.8 21.1 -77.3 21.1 -79.2 0 -1.9 -0.6 -2.1 -6.4 -2.1 -7.7 0 -6 -3.8 -15.1 33 -3.6 14.6 -7.1 28.3 -7.7 30.5 -1 3.9 -1.3 3 -8.9 -26 -4.3 -16.5 -8.3 -31.7 -8.9 -33.7 l-1.1 -3.8 -6.5 0 c-5.7 0 -6.5 0.2 -7.4 2.3 -0.5 1.2 -4.6 16.1 -9 33.2 -4.5 17 -8.2 31 -8.3 31.2 -0.1 0.1 -4.1 -14.8 -8.7 -33 l-8.5 -33.2 -6.7 -0.3 c-6.3 -0.3 -6.8 -0.1 -6.8 1.7 0 2.2 21.4 80.2 23 83.9 0.8 1.9 1.7 2.2 7.4 2.2 3.6 0 6.8 -0.5 7.2 -1.1z m108.9 -42.9 l0 -43.5 -6.5 0 -6.5 0 -0.3 42.5 c-0.1 23.4 0 43.1 0.3 43.8 0.3 0.9 2.3 1.2 6.7 1 l6.3 -0.3 0 -43.5z m249.5 29.1 l0 -14.8 14.3 -0.5 c11.9 -0.4 15.1 -0.9 19.5 -2.8 10.8 -4.7 15.9 -14.7 15 -29.5 -0.8 -11.7 -4.7 -18.3 -13.8 -23.1 -3.1 -1.7 -6 -1.9 -25.5 -1.9 l-22 0 -0.3 42.5 c-0.1 23.4 0 43.1 0.3 43.8 0.3 0.8 2.6 1.2 6.5 1.2 l6 0 0 -14.9z m176.8 -1.8 l0.2 -16.3 8.9 0 8.9 0 8.5 16.3 8.5 16.2 6.2 0.3 c3.5 0.2 6.7 -0.1 7.3 -0.7 0.6 -0.6 -2.3 -7 -7.8 -17.6 -6.9 -13.2 -8.5 -16.9 -7.4 -17.6 0.8 -0.5 1.9 -0.9 2.4 -0.9 2.1 0 8.6 -6.3 10.8 -10.3 1.8 -3.5 2.2 -5.9 2.2 -13.7 0 -8.8 -0.2 -9.9 -3.1 -14.9 -2.3 -4.2 -4.3 -6.2 -8.5 -8.5 l-5.4 -3.1 -22 0 -22 0 -0.3 42.5 c-0.1 23.4 0 43.1 0.3 43.8 0.3 0.9 2.2 1.2 6.2 1 l5.8 -0.3 0.3 -16.2z m105 -21 l0.2 -37.3 12.3 0 c6.7 0 12.8 -0.4 13.5 -0.9 0.9 -0.5 1.2 -2.5 1 -6.2 l-0.3 -5.4 -33 0 -33 0 -0.3 5.4 c-0.2 3.7 0.1 5.7 1 6.2 0.7 0.5 6.8 0.9 13.6 0.9 l12.2 0 0 37.5 0 37.6 6.3 -0.3 6.2 -0.3 0.3 -37.2z m48.2 27.2 l3.5 -10 17.6 -0.3 17.6 -0.2 3.8 10.5 3.7 10.5 6.3 0 c3.5 0 6.6 -0.4 6.9 -0.9 0.5 -0.8 -18.2 -54.4 -28 -80.4 l-2.6 -6.8 -7.5 0.3 -7.5 0.3 -15.4 42.9 c-8.4 23.6 -15.1 43.3 -14.8 43.8 0.3 0.5 3.3 0.8 6.7 0.6 l6.1 -0.3 3.6 -10z m137.4 8.9 c1 -2.7 0.7 -8.9 -0.6 -10.2 -0.9 -0.9 -6.9 -1.2 -21 -1.2 l-19.8 0 0 -36.2 c0 -20 -0.4 -36.9 -0.9 -37.6 -0.5 -0.9 -2.6 -1.2 -6.7 -1 l-5.9 0.3 -0.3 42.5 c-0.1 23.4 0 43.1 0.3 43.8 0.3 0.9 6.7 1.2 27.4 1.2 23.6 0 27 -0.2 27.5 -1.6z m61.4 -16.1 l0.2 -17.3 16.3 -0.2 16.2 -0.3 0 -6 0 -6 -16.2 -0.3 -16.3 -0.2 0 -13.5 0 -13.5 19.3 0 c10.5 0 19.8 -0.4 20.5 -0.9 0.9 -0.5 1.2 -2.5 1 -6.2 l-0.3 -5.4 -27 0 -27 0 -0.3 42.5 c-0.1 23.4 0 43.1 0.3 43.8 0.3 0.9 2.3 1.2 6.7 1 l6.3 -0.3 0.3 -17.2z m166 1 l0.2 -16.3 9 0 9 0 8.2 16.3 8.3 16.2 6.4 0.3 c3.5 0.2 6.8 -0.1 7.3 -0.6 0.6 -0.6 -2.2 -7 -7.6 -17.2 -4.7 -8.9 -8.6 -16.5 -8.6 -16.9 0 -0.4 2 -1.7 4.5 -2.9 8.6 -4.2 13.5 -15.1 12 -27.1 -1.3 -10.2 -5 -16.1 -13 -20.4 -3.8 -2.1 -5.4 -2.2 -26 -2.2 l-22 0 -0.3 43.8 -0.2 43.8 6.2 -0.3 6.3 -0.3 0.3 -16.2z m120 1.6 l0.3 -14.6 14.2 -0.5 c16.2 -0.6 20.9 -2 27 -8.3 4.8 -5 7.1 -12 7 -22.1 0 -13.9 -5.7 -22.6 -16.9 -26 -3.4 -1 -10.3 -1.4 -24.6 -1.4 l-19.8 0 0 44 0 44.1 6.3 -0.3 6.2 -0.3 0.3 -14.6z m86.6 13.5 c0.3 -0.9 0.6 -9.4 0.6 -19 l0 -17.4 18.5 0 18.5 0 0 19 0 19.1 6.3 -0.3 6.2 -0.3 0 -43.5 0 -43.5 -6 0 -6 0 -0.5 18 -0.5 18 -18.2 0.3 -18.3 0.2 0 -17.2 c0 -9.5 -0.4 -17.9 -0.9 -18.6 -0.5 -0.9 -2.6 -1.2 -6.7 -1 l-5.9 0.3 -0.3 42.5 c-0.1 23.4 0 43.1 0.3 43.8 0.7 1.9 12.1 1.6 12.9 -0.4z m93.1 -42.4 l0 -43.5 -6.2 -0.3 -6.3 -0.3 0 44.1 0 44.1 6.3 -0.3 6.2 -0.3 0 -43.5z m85.3 38.7 c0.5 -7.8 0.7 -7.7 -21.9 -7.7 l-19.9 0 -0.2 -37.2 -0.3 -37.3 -5.9 -0.3 c-4.1 -0.2 -6.2 0.1 -6.7 1 -1 1.5 -1.2 82.8 -0.3 85.2 0.6 1.5 3.7 1.6 27.8 1.4 l27.1 -0.3 0.3 -4.8z m296 -9.8 l0.3 -14.6 14.4 -0.5 c13.1 -0.5 14.9 -0.7 19.9 -3.2 10 -4.9 13.9 -12.4 14 -26.6 0.1 -11.1 -2.1 -17 -8.2 -22 -6.5 -5.4 -10.6 -6.1 -32.8 -5.8 l-19.9 0.3 -0.3 42.5 c-0.1 23.4 0 43.1 0.3 43.8 0.3 0.9 2.2 1.2 6.2 1 l5.8 -0.3 0.3 -14.6z m87 -4.1 l0.2 -18.8 18.5 0 18.5 0 0.2 18.8 0.3 18.7 6 0 6 0 0 -43.5 0 -43.5 -6 0 -6 0 -0.5 18 -0.5 18 -18.2 0.3 -18.3 0.2 -0.2 -18.2 -0.3 -18.3 -6.5 0 -6.5 0 -0.3 42.5 c-0.1 23.4 0 43.1 0.3 43.8 0.3 0.9 2.3 1.2 6.7 1 l6.3 -0.3 0.3 -18.7z m113.2 2.3 l0 -17 15 -25.3 c8.3 -13.9 15 -26.1 15 -27.1 0 -1.6 -0.8 -1.8 -6.6 -1.5 l-6.7 0.3 -10.8 19 c-6 10.4 -11.2 19.1 -11.7 19.3 -0.4 0.1 -5.8 -8.4 -11.9 -19 l-11.1 -19.3 -6.2 -0.3 c-3.5 -0.2 -6.7 0.1 -7.3 0.7 -0.6 0.6 4.2 9.7 14.2 26.8 l15.1 25.7 0 16.7 c0 9.1 0.3 16.9 0.7 17.2 0.3 0.4 3.3 0.7 6.5 0.7 l5.8 0 0 -16.9z m-334.9 -135.9 c4.3 -2.2 5.9 -3.8 8.2 -8.2 2.6 -4.9 2.8 -6.2 2.4 -12.3 -0.5 -8.4 -3.9 -13.8 -10.6 -17.4 -5.6 -2.9 -14.7 -3.1 -20.7 -0.4 -16.1 7.3 -15.7 32.4 0.6 39.5 5.8 2.5 13.9 2 20.1 -1.2z m-1681.4 -0.4 l2.3 -2.1 0 -40 0 -40 5.5 5.5 c6.1 6.1 14 10.7 23 13.4 7.5 2.2 25.6 2.5 33.5 0.5 22.4 -5.5 37.4 -22.8 43.5 -50.2 2.2 -10 3.2 -45.9 1.6 -59.7 -2.9 -24.7 -11.5 -41.8 -25.9 -51.6 -12 -8.2 -27.1 -11.5 -43.1 -9.6 -14.9 1.9 -25.2 6.8 -33.6 16.2 l-4.5 5 0 -7.1 c0 -10.7 -0.6 -11.1 -17.5 -11.1 -12.2 0 -13.7 0.2 -15.5 2 -2 2 -2 3.3 -2 114.5 0 111.2 0 112.5 2 114.5 1.8 1.8 3.3 2 15.2 2 12.1 0 13.4 -0.2 15.5 -2.2z m1062.3 0.2 c1.9 -1.9 2 -3.3 2 -42 0 -22 0.1 -40 0.3 -40 0.2 0 3 2.6 6.3 5.8 11 10.8 26.6 16 44.5 14.8 27.2 -1.8 45.7 -18.1 53.7 -47.4 2.5 -9.5 2.6 -10.4 2.6 -39.7 0 -29.4 0 -30.2 -2.6 -39.7 -3.6 -13 -8.9 -22.9 -16.3 -30.3 -11 -11 -23.5 -15.7 -41.5 -15.7 -18 -0.1 -30.2 4.4 -40.7 14.9 l-6.3 6.3 0 -7 c0 -10.6 -0.6 -11 -17.5 -11 -12.2 0 -13.7 0.2 -15.5 2 -2 2 -2 3.3 -2 114.2 l0 112.2 2.2 2.3 c2 2.2 2.8 2.3 15.5 2.3 12 0 13.5 -0.2 15.3 -2z m-463.4 -64.3 c17.8 -5.1 33.2 -17.7 41.2 -33.7 7.7 -15.5 8.6 -20.7 8.6 -50 0 -23 -0.2 -26.3 -2.2 -33.3 -9.3 -33.5 -34.6 -52.9 -69.2 -52.9 -22.9 0 -41.2 8.2 -54.8 24.5 -5.2 6.3 -11.6 19 -13.7 27.2 -3.8 14.7 -4.3 48.8 -0.9 65.1 5.9 29 26.5 49.5 55 54.9 10.6 2 25.6 1.3 36 -1.8z m173.3 0.3 c26.4 -6.4 40.2 -23.1 40.1 -48.8 -0.1 -14.1 -3.9 -24 -12.7 -32.3 -8.1 -7.7 -18.5 -12 -43.5 -18.3 -11.7 -2.9 -23.6 -6.5 -26.3 -7.9 -8 -4 -11.5 -8.9 -11.5 -16.2 0 -11.7 9.2 -17.7 27 -17.7 16.6 0 24.8 4.9 30.9 18.5 l3 6.7 13.1 0 c7.2 0 14 -0.5 15.1 -1 4.8 -2.6 0.2 -18.7 -8.6 -30.5 -13.2 -17.5 -34.2 -25.1 -62.1 -22.4 -22.1 2.1 -37.8 10.1 -46.6 23.9 -4.3 6.7 -6 13.7 -5.9 24.6 0 19.1 6.3 30.7 21.5 39.8 7.4 4.4 17.1 7.7 36.3 12.1 24 5.5 31.3 8.7 34.8 15.5 2 3.9 1.9 10.6 -0.4 15.7 -2.5 5.4 -7.9 8.9 -16.7 10.8 -21.6 4.6 -38.7 -2.5 -44.9 -18.7 -2.8 -7 -4.5 -7.8 -18 -7.8 -13.6 0 -15.5 0.9 -15.5 7.5 0 2.4 1.1 7.4 2.4 11.1 7.3 20.1 25.3 33.4 50.1 37.4 8.9 1.4 28.7 0.3 38.4 -2z m163.6 0.5 c8 -2 20.9 -8.5 26.8 -13.4 10.6 -8.8 17.9 -20.1 22.4 -34.6 2.7 -8.9 2.8 -9.3 2.8 -36 0 -25.2 -0.1 -27.5 -2.3 -34.9 -8.5 -29.3 -30.6 -48.2 -60.3 -51.6 -36.1 -4.1 -66.9 16.5 -77.1 51.6 -2.1 7.4 -2.3 9.7 -2.3 34.4 0 22.7 0.3 27.5 1.9 33.5 7.5 28.2 27 46.6 55.1 52.1 8.4 1.6 24.3 1.1 33 -1.1z m631.9 1 c14.3 -2.5 25.8 -8.1 36 -17.5 9.1 -8.5 17.6 -23.4 17.6 -31.1 0 -3.3 -0.4 -4.1 -2.6 -4.9 -2.8 -1.1 -22.5 -1.2 -26.4 -0.1 -1.6 0.4 -4.3 3.4 -7.5 8 -8.6 12.6 -16.9 16.7 -31.9 15.9 -10.6 -0.6 -17.6 -3.9 -24.5 -11.3 -6.2 -6.8 -9.2 -14.4 -9.9 -24.7 l-0.5 -7.8 50.1 0 c34.6 0 50.9 -0.3 52.5 -1.1 4.5 -2 5 -4.5 4.4 -21.1 -0.8 -22.9 -4.8 -35.7 -15.7 -50.1 -8.4 -11.1 -23.1 -20.5 -38 -24.3 -9.2 -2.4 -26.2 -2.1 -36.1 0.5 -25.3 6.6 -42.8 24.4 -50.1 50.8 -2 7 -2.2 10.3 -2.2 33.3 0 23.3 0.2 26.2 2.2 33.5 7.7 27.9 27.9 47 54.9 51.9 10.4 1.9 17.3 1.9 27.7 0.1z m238.1 -1.1 c19.8 -5.3 36.4 -21.3 43.5 -42 2.5 -7.1 2.7 -14.9 0.4 -15.8 -0.9 -0.3 -5.4 -0.6 -10 -0.6 -7.1 0 -8.7 0.3 -10.4 2 -1.1 1.1 -2 2.7 -2 3.6 0 0.9 -1.7 5.3 -3.8 9.8 -4.4 9.2 -11.1 16.3 -19 19.9 -4 1.9 -6.5 2.2 -16.7 2.2 -10.1 0 -12.9 -0.4 -17.5 -2.2 -11.6 -4.7 -20.7 -15.9 -24.6 -30.3 -2.3 -8.4 -2.7 -49.9 -0.5 -59.5 3.3 -14.8 11.7 -26 23.9 -31.8 6.3 -3 7.3 -3.2 18.2 -3.2 10.6 0 12 0.2 17.7 2.9 10 4.6 16.8 13 21.4 26.4 2.8 8.2 2.8 8.2 13.9 8.2 12.4 0 12.9 -0.4 10.6 -9.8 -2.1 -8.8 -8.3 -21.3 -14.3 -28.7 -5.9 -7.2 -17.7 -15.5 -26.5 -18.4 -13.6 -4.5 -31.6 -4.6 -45.9 -0.1 -21.4 6.6 -38 26 -43 50.2 -2.7 13.3 -2.7 52.1 0 65.4 7.1 34.5 34.1 55.6 69.1 53.9 5.2 -0.3 12.2 -1.2 15.5 -2.1z m-1620.5 -3.4 c1.9 -1.9 2 -3.3 2 -50.7 0 -26.9 0.4 -51.4 1 -54.6 2.1 -12.9 10.1 -24.1 20.5 -28.9 7.5 -3.4 20.9 -3.2 28.5 0.3 7.3 3.4 12 7.6 15.3 13.7 5.5 10.2 5.7 12.2 5.7 66.5 0 49.7 0.2 52.8 3.4 54.9 0.6 0.4 7.3 0.8 14.8 0.8 14.6 0 16.1 -0.5 17.4 -5.4 0.3 -1.3 0.4 -25.7 0.1 -54.2 -0.3 -44.8 -0.6 -52.9 -2.1 -59.3 -5.2 -22.2 -14.4 -35.9 -29.4 -43.9 -8.6 -4.6 -17 -6.5 -29.2 -6.5 -18 0 -28.7 4.1 -39.7 14.9 l-6.3 6.2 0 -40.3 0 -40.4 -2.6 -2 c-2.4 -1.9 -4 -2.1 -15.3 -2.1 -11.4 0 -12.9 0.2 -14.9 2 l-2.2 2.1 0 112.6 c0 103.4 0.1 112.8 1.7 114.5 1.4 1.6 3.3 1.8 15.5 1.8 12.5 0 14 -0.2 15.8 -2z m190.6 -0.1 c1.8 -2 1.9 -4.8 1.9 -81.1 l0 -79 -2.4 -1.9 c-2 -1.7 -4 -1.9 -15.7 -1.9 -12.4 0 -13.5 0.1 -15.4 2.2 -2 2.2 -2 3.1 -2 81 0 77.5 0 78.8 2 80.8 1.8 1.8 3.3 2 15.8 2 12.9 0 14 -0.2 15.8 -2.1z m85 1.3 c3.3 -2.2 3.4 -4.2 3.4 -116.2 l0 -111.1 -2.5 -2.4 c-2.3 -2.4 -2.9 -2.5 -15.5 -2.5 -12.6 0 -13.2 0.1 -15.5 2.5 l-2.5 2.4 0 111.1 c0 112 0.1 114 3.4 116.2 0.6 0.4 7.2 0.8 14.6 0.8 7.4 0 14 -0.4 14.6 -0.8z m786.6 -0.9 c1.7 -1.5 1.8 -4.3 1.8 -47.7 0 -25.4 0.4 -49.7 0.9 -54.1 1.4 -12.1 4.4 -18.9 11.1 -25.7 4.8 -4.8 6.8 -6 13 -7.9 8.2 -2.5 15.8 -2.2 24.5 0.7 7 2.4 15.4 11 18.6 18.9 l2.4 6 0.5 53.6 c0.5 51 0.6 53.8 2.4 55.8 1.8 1.9 3 2.1 15.8 2.1 12.5 0 14 -0.2 15.8 -2 1.9 -1.9 2 -3.3 2 -52.9 0 -52.9 -0.5 -60.6 -4.6 -73.6 -3.1 -9.6 -8.6 -18.8 -15.4 -25.5 -10.7 -10.7 -22.8 -15.3 -40.5 -15.3 -17.9 0 -29.7 4.4 -40.2 15 l-6.3 6.4 0 -40.5 c0 -49.2 1.8 -44.6 -17.1 -44.6 -11.3 0 -12.9 0.2 -15.3 2.1 l-2.6 2 0 112.5 c0 111.1 0 112.4 2 114.4 1.8 1.8 3.3 2 15.7 2 11.3 0 14 -0.3 15.5 -1.7z m189.4 0.9 c3.3 -2.2 3.4 -4.8 3.4 -82.5 0 -76.8 0 -77.5 -2.1 -80.1 -2 -2.6 -2.1 -2.6 -15.9 -2.6 -13.8 0 -13.9 0 -15.9 2.6 -2.1 2.6 -2.1 3.3 -2.1 80.1 0 77.7 0.1 80.3 3.4 82.5 0.6 0.4 7.2 0.8 14.6 0.8 7.4 0 14 -0.4 14.6 -0.8z m485.2 -0.5 c0.7 -0.8 1.2 -19.7 1.4 -54.2 0.4 -45.8 0.7 -53.8 2.1 -58.8 4.3 -14.7 11.2 -23.7 22.5 -29 6.3 -3 7.4 -3.2 17.7 -3.2 9.8 0 11.6 0.3 16.7 2.7 7.5 3.5 14.8 10.4 18.6 17.7 6 11.1 6.2 13.4 6.2 69.8 0 36.7 0.3 51.9 1.2 53.8 1.1 2.4 1.4 2.5 11.3 2.5 6.5 0 10.5 -0.4 11.3 -1.2 1.6 -1.6 1.7 -104.1 0.1 -113.7 -5.6 -34.6 -27.5 -54.3 -60.4 -54.4 -11.4 0 -20.2 1.9 -27.8 6.1 -5.9 3.1 -14.6 10.8 -16.6 14.6 -0.8 1.4 -1.8 2.6 -2.3 2.6 -0.4 0 -0.8 -18.9 -0.8 -41.9 0 -36.8 -0.2 -42.1 -1.6 -43.5 -1.2 -1.2 -3.7 -1.6 -10.9 -1.6 -8.6 0 -9.5 0.2 -10.9 2.2 -1.4 2 -1.6 14.5 -1.6 114.6 0 75.5 0.3 113 1 114.3 1 1.7 2.2 1.9 11.4 1.9 7.1 0 10.7 -0.4 11.4 -1.3z m-1552 -192.6 c8 -4.1 11.3 -9.8 11.3 -19.4 0.1 -13.8 -10.5 -23 -24.5 -21.3 -11.1 1.3 -18.6 9.9 -18.6 21.5 0.1 8.9 3.9 15.4 11.5 19.4 4.4 2.3 15.6 2.2 20.3 -0.2z m1063.3 -0.4 c5.4 -2.9 9.6 -9.3 10.5 -15.9 2.8 -20.7 -22.5 -33.2 -37.2 -18.4 -10.8 10.7 -7.1 30 6.7 35.5 1.3 0.5 5.4 1 9 1 5.1 0.1 7.6 -0.4 11 -2.2z"/>
  <path d="M716.6 485.8 c-5 -1.4 -10.8 -7.2 -12.4 -12.4 -0.7 -2.5 -1.2 -10.4 -1.2 -20.1 0 -15.4 0.1 -16.1 2.8 -21.4 7.2 -14.4 26.6 -13.9 33.9 0.8 2.7 5.6 2.8 6.3 2.8 21.3 0 16 -0.6 19.2 -4.8 25.3 -3.8 5.5 -13.6 8.6 -21.1 6.5z"/>
  <path d="M1235 485.9 c-5.3 -1.6 -9.5 -5.3 -12.1 -10.6 -2.2 -4.5 -2.4 -6 -2.4 -21.3 0 -15.3 0.2 -16.8 2.4 -21.3 5.8 -11.9 20 -15 29.8 -6.4 6.4 5.6 7.3 9 7.3 27.8 0 15.8 -0.1 16.7 -2.6 21.7 -4.1 8.3 -13.8 12.6 -22.4 10.1z"/>
  <path d="M1742 485.8 c-5.2 -1.5 -9.5 -5.2 -12.1 -10.5 -2.2 -4.5 -2.4 -6 -2.4 -21.3 0 -15.3 0.2 -16.8 2.4 -21.3 5.8 -11.9 20 -15 29.8 -6.4 6.4 5.6 7.3 9 7.3 27.7 0 13.8 -0.3 17.1 -1.9 20.5 -2.3 5.1 -7.9 10.1 -12.8 11.4 -4.4 1.3 -5.6 1.3 -10.3 -0.1z"/>
  <path d="M1916 485.9 c-5.3 -1.6 -9.5 -5.3 -12.1 -10.6 -2.2 -4.5 -2.4 -6 -2.4 -21.3 0 -15.3 0.2 -16.8 2.4 -21.3 5.8 -11.9 20 -15 29.8 -6.4 6.4 5.6 7.3 9 7.3 27.8 0 15.8 -0.1 16.7 -2.6 21.7 -4.1 8.3 -13.8 12.6 -22.4 10.1z"/>
  <path d="M619.7 454.3 c-0.4 -0.3 -0.7 -7.6 -0.7 -16 l0 -15.5 14.1 0.4 14.1 0.3 3.5 3.8 c3.5 3.9 3.5 4 3.1 11.7 -0.3 6.7 -0.7 8.2 -2.8 10.6 -4.1 4.3 -7.9 5.4 -19.8 5.4 -6 0 -11.2 -0.3 -11.5 -0.7z"/>
  <path d="M796 437.5 l0 -14.5 13.3 0 c14.3 0 17.5 1 20.3 6.2 2.1 3.7 1.7 12.8 -0.6 16.6 -3.1 5 -7.1 6.2 -21 6.2 l-12 0 0 -14.5z"/>
  <path d="M957 464.6 c0 -0.3 10.2 -30 12.5 -36.5 0.3 -0.8 0.7 -1.2 1 -1 0.2 0.3 3.3 8.9 6.9 19.2 l6.5 18.7 -13.4 0 c-7.4 0 -13.5 -0.2 -13.5 -0.4z"/>
  <path d="M1314 437.4 l0 -14.6 14 0.4 14 0.3 3.2 3.2 c2.8 2.8 3.2 4 3.6 9.5 0.2 5.1 -0.1 7 -1.8 9.6 -3.1 5 -7.1 6.2 -21 6.2 l-12 0 0 -14.6z"/>
  <path d="M1434 439.1 l0 -16.1 12.8 0 c11 0 13.1 0.3 16 2 8.4 5.1 8.3 21.3 -0.1 27.4 -2.5 1.8 -4.6 2.1 -15.8 2.5 l-12.9 0.3 0 -16.1z"/>
  <path d="M1995 439.1 l0 -16.1 12.8 0 c14.2 0 17.7 1.2 20.7 6.9 2 4 1.9 12.8 -0.3 17 -3.3 6.6 -5.8 7.6 -20.3 8 l-12.9 0.3 0 -16.1z"/>
  <path d="M205.3 251.2 c-10.9 -3.9 -17.3 -10.4 -21.5 -22 -1.8 -5 -2.2 -8.6 -2.6 -28.2 -0.4 -24.7 0.2 -30.7 4.4 -40.1 3.4 -7.6 11.3 -15 18.6 -17.6 8.2 -2.8 20.8 -2.5 27.8 0.8 10.4 4.9 16.3 12.2 19.5 24.4 1.8 7.3 2.1 47.4 0.4 55.7 -2.5 11.9 -10 21.8 -19.7 26 -6.7 3 -20 3.5 -26.9 1z"/>
  <path d="M1268.5 251.7 c-6.6 -2.2 -9.8 -4.3 -14.6 -9.4 -8.1 -8.6 -10.9 -20.3 -10.9 -45.3 0 -24.7 2.7 -36.1 10.5 -44.8 6.5 -7.3 14.5 -10.6 25.5 -10.7 11.9 0 17.9 2.2 25.1 9.4 3.8 3.8 6.3 7.5 8 11.6 2.3 5.9 2.4 6.7 2.4 34.5 0 27.8 -0.1 28.7 -2.4 34.5 -3.1 7.6 -10.5 15.5 -17.4 18.6 -6.4 2.8 -20.1 3.6 -26.2 1.6z"/>
  <path d="M745.5 251.7 c-6.8 -2.3 -10 -4.4 -15.3 -10.1 -8.2 -9 -9.4 -13.8 -9.9 -39.7 -0.6 -24.5 0.3 -32.5 4.6 -41.6 8.2 -17.2 30.4 -24.2 48.1 -15.2 5.2 2.6 11.6 9.7 14.5 16.1 3.9 8.6 4.7 16.6 4.3 40.7 -0.4 19 -0.8 22.3 -2.7 27.6 -5.2 14.6 -16.1 22.6 -31.4 23.2 -5 0.2 -9.8 -0.2 -12.2 -1z"/>
  <path d="M1085 251.7 c-6.3 -1.8 -11.2 -5 -15.9 -10.4 -7.4 -8.4 -10.1 -20.1 -10.1 -44.3 0 -32 5 -44.4 20.8 -52.2 6 -3 7.5 -3.3 15.7 -3.3 7.6 0 9.9 0.4 14.5 2.6 10.5 4.9 16.3 12.2 19.5 24.4 1.8 7.3 2.1 47.4 0.4 55.7 -2.5 11.5 -9.5 21 -18.7 25.4 -6.7 3.2 -19 4.2 -26.2 2.1z"/>
  <path d="M1697.2 175.8 c1.1 -14.5 7.6 -25.1 19.1 -30.8 15.3 -7.5 34.4 -3.5 44.6 9.3 4.1 5.2 7 13.3 7.7 21.7 l0.7 7 -36.3 0 -36.3 0 0.5 -7.2z"/>
 </g>
</svg>